<svg viewBox="0 0 64 64" xmlns="http://www.w3.org/2000/svg">
  <g fill="#1428A0">
    <!-- 열린 책 -->
    <path d="M4 31c10 .5 19 3.6 27 10.3V56C23.3 49.9 14.3 47 4 46.6V31Z"/>
    <path d="M60 31c-10 .5-19 3.6-27 10.3V56c7.7-6.1 16.7-9 27-9.4V31Z"/>

    <!-- 중앙의 공동 목적 -->
    <circle cx="32" cy="27" r="5.2"/>

    <!-- 상단 구성원 -->
    <circle cx="32" cy="8" r="4.4"/>
    <path d="M25.5 16.2 29 12.8h6l3.5 3.4-3.8 6.2h-5.4l-3.8-6.2Z"/>

    <!-- 좌우 구성원 -->
    <circle cx="14" cy="25.5" r="4.2"/>
    <path d="m20.2 19.1 4.2 3.1-2.2 5.2-5.5-1.8-.3-3.8 3.8-2.7Z"/>
    <circle cx="50" cy="25.5" r="4.2"/>
    <path d="m43.8 19.1-4.2 3.1 2.2 5.2 5.5-1.8.3-3.8-3.8-2.7Z"/>

    <!-- 하단 구성원 -->
    <circle cx="32" cy="43" r="4.2"/>
    <path d="m25.8 36.8 3-4.1h6.4l3 4.1-3.7 3.3h-5l-3.7-3.3Z"/>
  </g>
</svg>
