<svg xmlns="http://www.w3.org/2000/svg" viewBox="0 0 809 809">
<g transform="translate(0.000000,809.000000) scale(0.100000,-0.100000)" fill="#092d9e">
<path d="M3940 7583 c-89 -13 -228 -75 -290 -128 -207 -178 -285 -398 -235 -662 29 -155 149 -327 283 -410 93 -57 266 -113 350 -113 32 0 148 24 215 44 192 58 383 276 422 481 31 162 15 298 -51 433 -37 75 -60 107 -126 172 -74 74 -176 140 -215 140 -7 0 -13 4 -13 8 0 26 -241 51 -340 35z M3279 6304 c-68 -69 -188 -191 -266 -270 -79 -80 -143 -150 -143 -157 0 -7 24 -36 53 -65 28 -28 117 -118 197 -197 80 -80 205 -205 278 -278 74 -73 139 -137 145 -144 7 -6 40 -41 75 -77 35 -36 67 -68 72 -71 5 -3 36 8 68 25 33 17 87 36 119 42 l60 11 7 66 c3 36 6 252 6 479 0 390 -1 412 -18 412 -26 0 -184 80 -267 134 -92 60 -128 89 -197 159 -31 31 -59 57 -61 57 -2 0 -60 -57 -128 -126z M4624 6366 c-72 -72 -107 -101 -194 -157 -67 -43 -221 -122 -259 -132 -21 -5 -21 -6 -21 -344 0 -187 3 -401 7 -476 l6 -135 63 -12 c35 -7 91 -25 124 -41 l61 -29 415 414 c228 228 414 417 414 420 0 8 -544 556 -550 555 -3 -1 -32 -29 -66 -63z M2315 5314 c-99 -102 -181 -192 -183 -199 -2 -8 18 -38 45 -67 80 -90 93 -110 135 -196 40 -86 68 -187 68 -255 l0 -37 472 2 472 3 9 35 c4 19 11 45 14 56 5 22 -91 120 -531 544 -59 58 -154 149 -209 203 -56 53 -103 97 -106 97 -4 0 -87 -84 -186 -186z M5391 5303 c-112 -109 -302 -295 -422 -413 l-220 -215 14 -55 14 -55 472 -3 471 -2 0 30 c0 38 29 182 40 195 4 6 20 39 36 75 31 71 52 101 133 191 54 59 54 59 35 80 -10 12 -92 95 -181 185 -90 90 -163 168 -163 174 0 29 -44 -7 -229 -187z M202 3492 l3 -1947 40 -3 c81 -5 502 -53 550 -62 28 -5 131 -21 230 -35 99 -14 227 -34 285 -45 58 -11 179 -34 270 -51 259 -47 383 -73 620 -127 47 -11 119 -27 160 -36 41 -9 84 -20 95 -26 11 -5 76 -23 145 -41 69 -17 133 -36 144 -41 10 -5 68 -25 130 -43 167 -50 459 -164 501 -196 6 -4 39 -23 75 -41 79 -42 182 -105 189 -117 3 -4 24 -19 46 -33 23 -14 82 -66 134 -116 57 -55 94 -85 97 -77 3 7 4 89 2 181 -3 168 -3 169 -37 242 -19 39 -37 72 -41 72 -3 0 -14 17 -24 38 -27 56 -111 184 -180 274 -33 44 -70 93 -82 109 -51 70 -200 225 -395 409 -196 186 -579 445 -854 578 -60 30 -130 64 -155 77 -25 13 -72 34 -105 46 -33 12 -69 28 -80 35 -11 7 -58 24 -105 38 -47 15 -94 31 -105 36 -28 13 -130 45 -195 60 -30 8 -59 17 -65 21 -5 4 -80 22 -165 39 -85 18 -164 36 -175 41 -20 9 -141 29 -300 50 -44 6 -90 13 -102 15 l-23 4 0 1223 0 1223 -48 13 c-26 6 -61 18 -76 26 -16 9 -56 22 -90 31 -33 8 -86 24 -116 35 -30 12 -88 31 -128 44 l-72 23 2 -1946z M7805 5411 c-27 -10 -61 -22 -75 -29 -14 -6 -68 -23 -120 -38 -52 -14 -99 -29 -105 -33 -5 -5 -40 -16 -77 -27 l-68 -19 0 -1215 c0 -668 -4 -1220 -8 -1225 -4 -6 -65 -19 -137 -28 -169 -24 -245 -37 -270 -47 -11 -5 -78 -20 -150 -35 -71 -14 -148 -32 -170 -40 -22 -7 -89 -28 -150 -45 -60 -18 -123 -38 -140 -45 -16 -7 -55 -20 -85 -30 -89 -28 -363 -146 -440 -189 -14 -8 -54 -29 -90 -47 -36 -17 -72 -38 -80 -44 -8 -7 -40 -25 -70 -41 -30 -16 -66 -37 -80 -47 -14 -9 -72 -49 -130 -88 -156 -104 -178 -120 -335 -251 -190 -158 -465 -449 -583 -616 -83 -119 -136 -200 -159 -247 -14 -27 -29 -52 -33 -55 -4 -3 -21 -35 -39 -72 l-31 -67 2 -176 3 -176 70 66 c121 114 129 121 168 144 20 12 37 26 37 30 0 3 27 21 60 39 33 18 62 37 65 42 7 11 258 135 295 145 14 4 27 11 30 14 5 7 230 88 375 136 118 39 348 102 530 145 88 21 180 44 205 50 48 12 246 52 470 94 74 14 171 33 215 41 224 44 940 141 1150 157 l40 3 3 1943 2 1942 -22 -1 c-13 -1 -45 -9 -73 -18z M1525 5129 c-141 -21 -250 -82 -354 -196 -103 -111 -161 -252 -161 -395 0 -190 81 -367 226 -488 43 -36 160 -98 218 -115 192 -57 432 -5 579 126 102 91 163 197 198 347 24 104 24 130 -1 239 -26 111 -34 133 -87 215 -75 118 -212 220 -336 251 -82 21 -208 28 -282 16z M6375 5129 c-131 -20 -229 -68 -333 -164 -48 -44 -113 -142 -141 -213 -28 -71 -44 -195 -37 -286 27 -331 318 -576 651 -551 107 8 171 26 252 70 79 43 105 65 192 160 37 41 109 200 120 266 36 214 -20 396 -166 544 -40 40 -88 80 -107 89 -19 9 -38 21 -41 26 -3 5 -41 20 -84 34 -90 28 -218 39 -306 25z M3871 4949 c-41 -10 -81 -25 -90 -33 -9 -7 -30 -21 -48 -30 -45 -23 -139 -107 -169 -152 -15 -22 -29 -41 -33 -44 -11 -9 -50 -102 -72 -174 -32 -103 -30 -198 9 -316 36 -111 74 -174 145 -248 128 -133 265 -192 442 -192 149 0 271 44 383 137 109 91 195 244 224 400 12 64 -1 212 -21 237 -4 6 -14 29 -21 51 -16 50 -46 110 -68 136 -105 124 -225 206 -343 234 -90 21 -246 19 -338 -6z M2368 4334 c-3 -5 -9 -25 -13 -44 -9 -43 -79 -184 -114 -228 -70 -87 -170 -179 -240 -219 -8 -4 488 -493 500 -493 8 0 195 181 417 403 l403 403 -7 51 c-4 34 -12 54 -23 58 -14 6 -99 14 -306 30 -38 3 -142 12 -230 20 -245 22 -382 28 -387 19z M5215 4306 c-209 -18 -390 -36 -402 -40 -17 -5 -23 -18 -28 -59 l-7 -51 406 -403 c223 -222 411 -403 418 -403 6 0 121 110 255 244 l243 243 -57 44 c-88 67 -233 224 -233 252 0 4 -14 35 -31 69 -16 35 -33 79 -37 98 l-8 35 -69 2 c-39 0 -241 -13 -450 -31z M3649 3541 c-59 -58 -133 -131 -165 -162 -33 -31 -71 -69 -85 -85 -15 -16 -35 -36 -45 -45 -55 -47 -394 -397 -394 -406 0 -6 12 -22 28 -35 15 -14 88 -87 162 -163 74 -76 158 -160 187 -187 l52 -50 17 34 c20 39 21 40 115 141 40 42 77 77 83 77 6 0 22 12 35 25 13 14 27 25 32 25 5 0 41 16 79 35 39 19 97 39 130 46 l60 12 0 401 0 401 -82 23 c-46 12 -87 22 -93 21 -5 0 -58 -49 -116 -108z M4260 3634 c-25 -7 -57 -16 -72 -19 l-28 -5 0 -403 0 -403 61 -12 c167 -31 395 -196 468 -339 12 -24 24 -43 26 -43 6 0 435 431 435 436 0 2 -113 115 -252 251 -138 136 -320 317 -405 401 -87 86 -161 152 -171 151 -9 0 -37 -7 -62 -15z M3952 2659 c-168 -28 -300 -112 -402 -255 -47 -66 -56 -87 -100 -231 -31 -101 13 -311 89 -429 46 -70 164 -184 218 -210 121 -57 187 -73 305 -74 126 0 246 41 353 120 88 66 163 164 195 254 12 33 27 70 33 81 6 11 13 70 15 130 4 103 2 116 -27 200 -66 188 -198 327 -367 384 -113 38 -209 47 -312 30z"/>
</g>
</svg>