<svg xmlns="http://www.w3.org/2000/svg" width="900" height="900" viewBox="0 0 900 900"><g transform="translate(162.5 0)">
<rect width="575" height="900" fill="#f6f1e7"/><rect x="0" width="186" height="900" fill="#17264b"/><rect x="186" y="0" width="389" height="24" fill="#c7902d"/>
<g opacity=".95"><rect x="342" y="106" width="156" height="218" fill="#fff" stroke="#d3c6ad"/><rect x="365" y="136" width="66" height="7" fill="#c7902d"/><rect x="365" y="161" width="108" height="3" fill="#a8afba"/><rect x="365" y="178" width="108" height="3" fill="#a8afba"/><rect x="365" y="215" width="33" height="60" fill="#274c8a"/><rect x="408" y="235" width="33" height="40" fill="#c7902d"/><rect x="451" y="196" width="24" height="79" fill="#8090aa"/></g>
<text x="42" y="76" font-family="Noto Sans KR,Apple SD Gothic Neo,sans-serif" font-size="16" font-weight="700" fill="#f1d99e">KSMO POLICY SEMINAR</text>
<text x="42" y="132" font-family="Noto Sans KR,Apple SD Gothic Neo,sans-serif" font-size="15" font-weight="700" fill="#b9c7e4">정책세미나</text>
<rect x="24" y="157" width="304" height="204" fill="#17264b"/><text x="42" y="205" font-family="Noto Sans KR,Apple SD Gothic Neo,sans-serif" font-size="39" font-weight="800" fill="#fff"><tspan x="42">법정조합의</tspan><tspan x="42" dy="57">회계·감사와</tspan><tspan x="42" dy="57">정보공개</tspan></text>
<text x="224" y="402" font-family="Noto Sans KR,Apple SD Gothic Neo,sans-serif" font-size="18" font-weight="700" fill="#17264b">제도의 차이를 넘어</text><text x="224" y="435" font-family="Noto Sans KR,Apple SD Gothic Neo,sans-serif" font-size="18" font-weight="700" fill="#17264b">공통 실무기준의 가능성을 찾습니다</text>
<line x1="224" y1="474" x2="518" y2="474" stroke="#c7902d" stroke-width="4"/>
<text x="224" y="526" font-family="Noto Sans KR,Apple SD Gothic Neo,sans-serif" font-size="12" font-weight="700" fill="#777f8c">핵심 논의</text><text x="224" y="558" font-family="Noto Sans KR,Apple SD Gothic Neo,sans-serif" font-size="16" fill="#303948">회계 기준과 공시</text><text x="224" y="592" font-family="Noto Sans KR,Apple SD Gothic Neo,sans-serif" font-size="16" fill="#303948">감사 독립성과 내부통제</text><text x="224" y="626" font-family="Noto Sans KR,Apple SD Gothic Neo,sans-serif" font-size="16" fill="#303948">조합원 정보접근권</text>
<rect x="224" y="680" width="294" height="86" fill="#e9dfcb"/><text x="245" y="715" font-family="Noto Sans KR,Apple SD Gothic Neo,sans-serif" font-size="12" font-weight="700" fill="#7b6539">2026년 하반기 예정</text><text x="245" y="745" font-family="Noto Sans KR,Apple SD Gothic Neo,sans-serif" font-size="14" fill="#333b48">장소 확정 후 안내</text>
<text x="42" y="838" font-family="Noto Sans KR,Apple SD Gothic Neo,sans-serif" font-size="22" font-weight="800" fill="#fff">KSMO</text><text x="42" y="867" font-family="Noto Sans KR,Apple SD Gothic Neo,sans-serif" font-size="11" fill="#b9c7e4">정책위원회 · 표준위원회</text>
</g></svg>
