<svg xmlns="http://www.w3.org/2000/svg" width="900" height="900" viewBox="0 0 900 900"><g transform="translate(162.5 0)">
<rect width="575" height="900" fill="#102c35"/><circle cx="465" cy="130" r="175" fill="#d3aa55"/><circle cx="465" cy="130" r="116" fill="#1e6970"/><circle cx="465" cy="130" r="58" fill="#f4efe3"/>
<g fill="none" stroke="#d8b866" opacity=".32"><circle cx="430" cy="420" r="138"/><circle cx="430" cy="420" r="90"/><circle cx="430" cy="420" r="42"/><path d="M292 420H568M430 282V558M333 323L527 517M527 323L333 517"/></g>
<text x="42" y="74" font-family="Noto Sans KR,Apple SD Gothic Neo,sans-serif" font-size="17" font-weight="700" fill="#d8b866">KSMO GOVERNANCE FORUM</text>
<text x="42" y="126" font-family="Noto Sans KR,Apple SD Gothic Neo,sans-serif" font-size="15" font-weight="700" fill="#a7d2d1">조합경영포럼</text>
<text x="42" y="198" font-family="Noto Sans KR,Apple SD Gothic Neo,sans-serif" font-size="41" font-weight="800" fill="#fff"><tspan x="42">조합 거버넌스와</tspan><tspan x="42" dy="58">조합원 가치</tspan></text>
<text x="42" y="342" font-family="Noto Sans KR,Apple SD Gothic Neo,sans-serif" font-size="17" font-weight="700" fill="#d9e9e7">참여에서 책임까지,</text><text x="42" y="374" font-family="Noto Sans KR,Apple SD Gothic Neo,sans-serif" font-size="17" font-weight="700" fill="#d9e9e7">좋은 의사결정 구조를 묻습니다</text>
<rect x="42" y="535" width="491" height="214" fill="#f5f1e7"/>
<text x="68" y="580" font-family="Noto Sans KR,Apple SD Gothic Neo,sans-serif" font-size="12" font-weight="700" fill="#6b727d">주제</text><text x="152" y="580" font-family="Noto Sans KR,Apple SD Gothic Neo,sans-serif" font-size="16" font-weight="700" fill="#17323a">의사결정 구조 · 집행기관 책임 · 조합원 참여</text>
<line x1="68" y1="604" x2="507" y2="604" stroke="#cfd6d5"/><text x="68" y="645" font-family="Noto Sans KR,Apple SD Gothic Neo,sans-serif" font-size="12" font-weight="700" fill="#6b727d">일시</text><text x="152" y="645" font-family="Noto Sans KR,Apple SD Gothic Neo,sans-serif" font-size="16" fill="#17323a">2026년 하반기 예정</text>
<line x1="68" y1="669" x2="507" y2="669" stroke="#cfd6d5"/><text x="68" y="710" font-family="Noto Sans KR,Apple SD Gothic Neo,sans-serif" font-size="12" font-weight="700" fill="#6b727d">방식</text><text x="152" y="710" font-family="Noto Sans KR,Apple SD Gothic Neo,sans-serif" font-size="16" fill="#17323a">온·오프라인 병행 검토</text>
<rect x="0" y="812" width="575" height="88" fill="#071b22"/><text x="42" y="850" font-family="Noto Sans KR,Apple SD Gothic Neo,sans-serif" font-size="22" font-weight="800" fill="#fff">KSMO</text><text x="42" y="876" font-family="Noto Sans KR,Apple SD Gothic Neo,sans-serif" font-size="12" fill="#abc7ca">한국조합경영학회 학술위원회</text>
</g></svg>
